<svg width="1024" height="1024" viewBox="0 0 1024 1024" fill="none" xmlns="http://www.w3.org/2000/svg">
  <defs>
    <linearGradient id="bg" x1="132" y1="82" x2="892" y2="940" gradientUnits="userSpaceOnUse">
      <stop offset="0" stop-color="#152126"/>
      <stop offset="0.48" stop-color="#145C59"/>
      <stop offset="1" stop-color="#C88525"/>
    </linearGradient>
    <radialGradient id="warm-glow" cx="0" cy="0" r="1" gradientUnits="userSpaceOnUse" gradientTransform="translate(782 232) rotate(133) scale(502)">
      <stop stop-color="#FFE1A6"/>
      <stop offset="0.52" stop-color="#C88525" stop-opacity="0.34"/>
      <stop offset="1" stop-color="#C88525" stop-opacity="0"/>
    </radialGradient>
    <radialGradient id="cool-glow" cx="0" cy="0" r="1" gradientUnits="userSpaceOnUse" gradientTransform="translate(216 792) rotate(-47) scale(540)">
      <stop stop-color="#6ED7CF" stop-opacity="0.65"/>
      <stop offset="1" stop-color="#145C59" stop-opacity="0"/>
    </radialGradient>
    <filter id="soft-shadow" x="80" y="96" width="864" height="864" filterUnits="userSpaceOnUse" color-interpolation-filters="sRGB">
      <feDropShadow dx="0" dy="34" stdDeviation="42" flood-color="#071012" flood-opacity="0.34"/>
    </filter>
    <filter id="symbol-shadow" x="184" y="202" width="656" height="640" filterUnits="userSpaceOnUse" color-interpolation-filters="sRGB">
      <feDropShadow dx="0" dy="22" stdDeviation="22" flood-color="#071012" flood-opacity="0.28"/>
    </filter>
  </defs>

  <rect width="1024" height="1024" rx="224" fill="url(#bg)"/>
  <rect width="1024" height="1024" rx="224" fill="url(#warm-glow)"/>
  <rect width="1024" height="1024" rx="224" fill="url(#cool-glow)"/>

  <path d="M105 696C250 608 337 486 402 330C442 234 515 157 633 130C733 107 829 128 930 186V1024H105V696Z" fill="#FFFCF3" fill-opacity="0.08"/>
  <path d="M160 208C323 282 488 305 664 266C760 245 829 247 916 285" stroke="#FFFCF3" stroke-opacity="0.16" stroke-width="42" stroke-linecap="round"/>
  <path d="M148 792C258 736 361 720 476 760C558 789 652 790 774 714" stroke="#6ED7CF" stroke-opacity="0.19" stroke-width="34" stroke-linecap="round"/>

  <g filter="url(#soft-shadow)">
    <rect x="142" y="148" width="740" height="740" rx="176" fill="#FFFCF3" fill-opacity="0.12"/>
    <rect x="143.5" y="149.5" width="737" height="737" rx="174.5" stroke="#FFFCF3" stroke-opacity="0.24" stroke-width="3"/>
  </g>

  <g filter="url(#symbol-shadow)">
    <circle cx="512" cy="512" r="292" fill="#10191D" fill-opacity="0.22"/>
    <circle cx="512" cy="512" r="258" fill="#FFFCF3" fill-opacity="0.1"/>
    <g transform="translate(219 229) scale(24.4)" fill="#FFFCF3">
      <!-- Symbol based on Microsoft Fluent UI System Icons: share_screen_person_overlay_inside_24_filled.svg (MIT). -->
      <path d="M2 7.25C2 5.45 3.46 4 5.25 4h13.5C20.55 4 22 5.46 22 7.25v9.5c0 1.8-1.46 3.25-3.25 3.25H5.25A3.25 3.25 0 0 1 2 16.75v-9.5ZM16 12a2 2 0 1 0 0-4 2 2 0 0 0 0 4ZM5 8v4a1 1 0 0 0 1 1h5a1 1 0 0 0 1-1V8a1 1 0 0 0-1-1H6a1 1 0 0 0-1 1Zm9 5a1 1 0 0 0-1 1v.25A2.75 2.75 0 0 0 15.75 17h.5A2.75 2.75 0 0 0 19 14.25V14a1 1 0 0 0-1-1h-4Z"/>
    </g>
  </g>

  <circle cx="750" cy="738" r="94" fill="#FFFCF3"/>
  <circle cx="750" cy="738" r="78" fill="#C88525"/>
  <path d="M709 739.5L735.5 766L794 704" stroke="#FFFCF3" stroke-width="32" stroke-linecap="round" stroke-linejoin="round"/>
</svg>

